# xmcd
#
# Track frame offsets: 
#        150
#        15806
#        32144
#        47531
#        70522
#        87785
#        102583
#        118473
#        127200
#        142275
#        160464
#
# Disc length: 2381 seconds
#
# Revision: 0
# Processed by: cddbd v1.5.1PL0 Copyright (c) Steve Scherf et al.
# Submitted via: ExactAudioCopy v0.95b1
#
DISCID=9a094b0b
DTITLE=Proconsul - 5 stele
DYEAR=2004
DGENRE=Pop
TTITLE0=Altceva
TTITLE1=Te Visez
TTITLE2=Te Vreau
TTITLE3=Chiar de Maine
TTITLE4=Asculta-mi Inima
TTITLE5=Vina Mea
TTITLE6=Vino
TTITLE7=Striga-ma pe Nume
TTITLE8=Calatorul
TTITLE9=Te Visez (clubbin)
TTITLE10=Prima Zapada (bonus track)
EXTD=
EXTT0=
EXTT1=
EXTT2=
EXTT3=
EXTT4=
EXTT5=
EXTT6=
EXTT7=
EXTT8=
EXTT9=
EXTT10=
PLAYORDER=
